<?xml version="1.0" standalone="no"?>
<!DOCTYPE svg PUBLIC "-//W3C//DTD SVG 20010904//EN"
 "http://www.w3.org/TR/2001/REC-SVG-20010904/DTD/svg10.dtd">
<svg version="1.0" xmlns="http://www.w3.org/2000/svg"
 width="50.000000pt" height="50.000000pt" viewBox="0 0 50.000000 50.000000"
 preserveAspectRatio="xMidYMid meet">

<g transform="translate(0.000000,50.000000) scale(0.100000,-0.100000)"
fill="#000000" stroke="none">
<path d="M76 454 c-24 -23 -24 -395 0 -418 23 -24 325 -24 348 0 24 23 24 395
0 418 -23 24 -325 24 -348 0z m342 -66 l3 -58 -171 0 -170 0 0 53 c0 30 3 57
7 61 4 3 79 5 167 4 l161 -3 3 -57z m2 -143 l0 -65 -170 0 -170 0 0 65 0 65
170 0 170 0 0 -65z m-2 -142 l-3 -58 -165 0 -165 0 -3 58 -3 57 171 0 171 0
-3 -57z"/>
<path d="M192 393 c5 -25 105 -32 114 -8 4 9 3 19 -1 23 -4 4 -10 1 -12 -5 -6
-15 -83 -18 -83 -3 0 6 -5 10 -11 10 -6 0 -9 -8 -7 -17z"/>
<path d="M192 233 c5 -25 105 -32 114 -8 4 9 3 19 -1 23 -4 4 -10 1 -12 -5 -6
-15 -83 -18 -83 -3 0 6 -5 10 -11 10 -6 0 -9 -8 -7 -17z"/>
<path d="M192 93 c5 -25 105 -32 114 -8 4 9 3 19 -1 23 -4 4 -10 1 -12 -5 -6
-15 -83 -18 -83 -3 0 6 -5 10 -11 10 -6 0 -9 -8 -7 -17z"/>
</g>
</svg>
